<svg id="visual" viewBox="0 0 900 2200" width="900" height="2200" xmlns="http://www.w3.org/2000/svg" xmlns:xlink="http://www.w3.org/1999/xlink" version="1.1"><rect x="0" y="0" width="900" height="2200" fill="#001220"></rect><path d="M67 0L69.3 24.5C71.7 49 76.3 98 75.2 146.8C74 195.7 67 244.3 63.2 293.2C59.3 342 58.7 391 57.5 440C56.3 489 54.7 538 58.3 586.8C62 635.7 71 684.3 75.8 733.2C80.7 782 81.3 831 78.8 880C76.3 929 70.7 978 69.3 1026.8C68 1075.7 71 1124.3 73.5 1173.2C76 1222 78 1271 75.2 1320C72.3 1369 64.7 1418 65.3 1466.8C66 1515.7 75 1564.3 77.7 1613.2C80.3 1662 76.7 1711 72.3 1760C68 1809 63 1858 64.7 1906.8C66.3 1955.7 74.7 2004.3 77.7 2053.2C80.7 2102 78.3 2151 77.2 2175.5L76 2200L0 2200L0 2175.5C0 2151 0 2102 0 2053.2C0 2004.3 0 1955.7 0 1906.8C0 1858 0 1809 0 1760C0 1711 0 1662 0 1613.2C0 1564.3 0 1515.7 0 1466.8C0 1418 0 1369 0 1320C0 1271 0 1222 0 1173.2C0 1124.3 0 1075.7 0 1026.8C0 978 0 929 0 880C0 831 0 782 0 733.2C0 684.3 0 635.7 0 586.8C0 538 0 489 0 440C0 391 0 342 0 293.2C0 244.3 0 195.7 0 146.8C0 98 0 49 0 24.5L0 0Z" fill="#575757"></path><path d="M32 0L36.5 24.5C41 49 50 98 53.8 146.8C57.7 195.7 56.3 244.3 52 293.2C47.7 342 40.3 391 39.3 440C38.3 489 43.7 538 43.8 586.8C44 635.7 39 684.3 39 733.2C39 782 44 831 45.3 880C46.7 929 44.3 978 45.3 1026.8C46.3 1075.7 50.7 1124.3 52 1173.2C53.3 1222 51.7 1271 47.5 1320C43.3 1369 36.7 1418 37.3 1466.8C38 1515.7 46 1564.3 47.7 1613.2C49.3 1662 44.7 1711 41 1760C37.3 1809 34.7 1858 34.3 1906.8C34 1955.7 36 2004.3 38 2053.2C40 2102 42 2151 43 2175.5L44 2200L0 2200L0 2175.5C0 2151 0 2102 0 2053.2C0 2004.3 0 1955.7 0 1906.8C0 1858 0 1809 0 1760C0 1711 0 1662 0 1613.2C0 1564.3 0 1515.7 0 1466.8C0 1418 0 1369 0 1320C0 1271 0 1222 0 1173.2C0 1124.3 0 1075.7 0 1026.8C0 978 0 929 0 880C0 831 0 782 0 733.2C0 684.3 0 635.7 0 586.8C0 538 0 489 0 440C0 391 0 342 0 293.2C0 244.3 0 195.7 0 146.8C0 98 0 49 0 24.5L0 0Z" fill="#828282"></path><path d="M21 0L19.3 24.5C17.7 49 14.3 98 12.8 146.8C11.3 195.7 11.7 244.3 14 293.2C16.3 342 20.7 391 21.3 440C22 489 19 538 16.2 586.8C13.3 635.7 10.7 684.3 14.5 733.2C18.3 782 28.7 831 30.2 880C31.7 929 24.3 978 22.7 1026.8C21 1075.7 25 1124.3 28 1173.2C31 1222 33 1271 32 1320C31 1369 27 1418 26.8 1466.8C26.7 1515.7 30.3 1564.3 32 1613.2C33.7 1662 33.3 1711 33.3 1760C33.3 1809 33.7 1858 32 1906.8C30.3 1955.7 26.7 2004.3 26.7 2053.2C26.7 2102 30.3 2151 32.2 2175.5L34 2200L0 2200L0 2175.5C0 2151 0 2102 0 2053.2C0 2004.3 0 1955.7 0 1906.8C0 1858 0 1809 0 1760C0 1711 0 1662 0 1613.2C0 1564.3 0 1515.7 0 1466.8C0 1418 0 1369 0 1320C0 1271 0 1222 0 1173.2C0 1124.3 0 1075.7 0 1026.8C0 978 0 929 0 880C0 831 0 782 0 733.2C0 684.3 0 635.7 0 586.8C0 538 0 489 0 440C0 391 0 342 0 293.2C0 244.3 0 195.7 0 146.8C0 98 0 49 0 24.5L0 0Z" fill="#b0b0b0"></path></svg>