<svg  width="650" height="200" id="Layer_1" data-name="Layer 1" xmlns="http://www.w3.org/2000/svg" viewBox="0 0 934.97 789.79"><defs><style>.cls-1{fill:#a3a3a3;}.cls-2{fill:#707071;}.cls-3{fill:#58595b;}</style></defs><path class="cls-1" d="M741.41,405c-57.72,14.33-76.62-18.15-136-18.15s-81.39,9.42-140.74,9.35c-61.18-.07-36.52-18.7-95.83-18.69s-20.56,15.4-79.92,15.4-31.19-15.77-87.77-13.82c-59.33,2-34.73,21.46-92.46,7.13-13.84-3.44-35.35-4.28-35.35-19s-20.84-11.41-20.84-26.15,11.78-16.66,11.78-31.4-10.88-17.24-10.88-32S73.69,260.19,69.05,246c-6-18.29-7.74-31.49,11.57-31.68,60-.6,57.57,14.19,116.92,14.19s42.17-15,101.53-15,60.66,15.85,120,15.85,50.19-10.32,109.3-15.85c77.22-7.22,69.67,3.53,111.5,10.63,58.58,9.93,58.8-21.93,116.52-7.61,13.85,3.44,1.31,19.48,1.31,34.22s13.6,18.54,13.6,33.27-11.78,10.9-11.78,25.63,8.15,29.35,8.15,44.08-3.49,19,0,33.27C774,412.68,755.26,401.57,741.41,405Z"/><path class="cls-2" d="M723.28,387c-52.37,11-82.11-18.22-136-18.22S513.47,376,459.62,376c-55.51-.06-37.48-12.58-91.29-12.58s-28.63,19-82.49,19-29.46-16.54-80.79-15c-53.83,1.56-27.27,21.26-79.65,10.29-12.55-2.63-42.6-10.1-42.6-21.39s-13.75-12.14-13.75-23.43,10.35-12,10.35-23.3S69.05,299,69.05,287.69s11.26-16.79,11.26-28.08-10.21-29.55,2.35-32.18c52.37-11,58,9.21,111.86,9.21S248.37,227,302.23,227s59,12.81,112.85,12.81S464,231.24,517.65,227c70.06-5.53,69.77,6.58,107.72,12,53.16,7.61,59.49-22.57,111.86-11.59,12.56,2.63,4.8,20.83,4.8,32.11s8.82,16.83,8.82,28.12-4.69,11.3-4.69,22.59,4.69,11.27,4.69,22.56-8.77,21.94-5.59,32.89C751,385.35,735.84,384.39,723.28,387Z"/><path class="cls-3" d="M716.93,378.31c-48,9-99.76-21.53-149.13-21.53s-67.7,5.89-117.08,5.85c-50.88-.05-34.35-10.27-83.69-10.27s-26.24,15.52-75.62,15.52-27-13.5-74.07-12.28c-49.35,1.28-25,17.35-73,8.4-11.51-2.15-39.06-8.25-39.06-17.46s-12.6-9.9-12.6-19.11,9.48-9.8,9.48-19-9.48-8.62-9.48-17.83S103,276.89,103,267.68s-9.36-24.11,2.16-26.26c48-9,53.17,7.51,102.54,7.51s49.38-7.86,98.75-7.86,54.09,10.45,103.47,10.45,44.86-7,94-10.45c64.23-4.52,64,5.37,98.76,9.8,48.73,6.21,63.85-23.32,111.86-14.36,11.52,2.14,12.54,8.32,12.54,17.53s9.22,18.41,9.22,27.62-5.44,4.45-5.44,13.67S738,317.61,738,326.82s-8.69,15.72-5.78,24.65C737.45,367.51,728.45,376.16,716.93,378.31Z"/></svg>