<svg id="visual" viewBox="0 0 900 4000" width="900" height="4000" xmlns="http://www.w3.org/2000/svg" xmlns:xlink="http://www.w3.org/1999/xlink" version="1.1"><path d="M67 0L69.3 44.5C71.7 89 76.3 178 75.2 266.8C74 355.7 67 444.3 63.2 533.2C59.3 622 58.7 711 57.5 800C56.3 889 54.7 978 58.3 1066.8C62 1155.7 71 1244.3 75.8 1333.2C80.7 1422 81.3 1511 78.8 1600C76.3 1689 70.7 1778 69.3 1866.8C68 1955.7 71 2044.3 73.5 2133.2C76 2222 78 2311 75.2 2400C72.3 2489 64.7 2578 65.3 2666.8C66 2755.7 75 2844.3 77.7 2933.2C80.3 3022 76.7 3111 72.3 3200C68 3289 63 3378 64.7 3466.8C66.3 3555.7 74.7 3644.3 77.7 3733.2C80.7 3822 78.3 3911 77.2 3955.5L76 4000L0 4000L0 3955.5C0 3911 0 3822 0 3733.2C0 3644.3 0 3555.7 0 3466.8C0 3378 0 3289 0 3200C0 3111 0 3022 0 2933.2C0 2844.3 0 2755.7 0 2666.8C0 2578 0 2489 0 2400C0 2311 0 2222 0 2133.2C0 2044.3 0 1955.7 0 1866.8C0 1778 0 1689 0 1600C0 1511 0 1422 0 1333.2C0 1244.3 0 1155.7 0 1066.8C0 978 0 889 0 800C0 711 0 622 0 533.2C0 444.3 0 355.7 0 266.8C0 178 0 89 0 44.5L0 0Z" fill="#575757"></path><path d="M32 0L36.5 44.5C41 89 50 178 53.8 266.8C57.7 355.7 56.3 444.3 52 533.2C47.7 622 40.3 711 39.3 800C38.3 889 43.7 978 43.8 1066.8C44 1155.7 39 1244.3 39 1333.2C39 1422 44 1511 45.3 1600C46.7 1689 44.3 1778 45.3 1866.8C46.3 1955.7 50.7 2044.3 52 2133.2C53.3 2222 51.7 2311 47.5 2400C43.3 2489 36.7 2578 37.3 2666.8C38 2755.7 46 2844.3 47.7 2933.2C49.3 3022 44.7 3111 41 3200C37.3 3289 34.7 3378 34.3 3466.8C34 3555.7 36 3644.3 38 3733.2C40 3822 42 3911 43 3955.5L44 4000L0 4000L0 3955.5C0 3911 0 3822 0 3733.2C0 3644.3 0 3555.7 0 3466.8C0 3378 0 3289 0 3200C0 3111 0 3022 0 2933.2C0 2844.3 0 2755.7 0 2666.8C0 2578 0 2489 0 2400C0 2311 0 2222 0 2133.2C0 2044.3 0 1955.7 0 1866.8C0 1778 0 1689 0 1600C0 1511 0 1422 0 1333.2C0 1244.3 0 1155.7 0 1066.8C0 978 0 889 0 800C0 711 0 622 0 533.2C0 444.3 0 355.7 0 266.8C0 178 0 89 0 44.5L0 0Z" fill="#828282"></path><path d="M21 0L19.3 44.5C17.7 89 14.3 178 12.8 266.8C11.3 355.7 11.7 444.3 14 533.2C16.3 622 20.7 711 21.3 800C22 889 19 978 16.2 1066.8C13.3 1155.7 10.7 1244.3 14.5 1333.2C18.3 1422 28.7 1511 30.2 1600C31.7 1689 24.3 1778 22.7 1866.8C21 1955.7 25 2044.3 28 2133.2C31 2222 33 2311 32 2400C31 2489 27 2578 26.8 2666.8C26.7 2755.7 30.3 2844.3 32 2933.2C33.7 3022 33.3 3111 33.3 3200C33.3 3289 33.7 3378 32 3466.8C30.3 3555.7 26.7 3644.3 26.7 3733.2C26.7 3822 30.3 3911 32.2 3955.5L34 4000L0 4000L0 3955.5C0 3911 0 3822 0 3733.2C0 3644.3 0 3555.7 0 3466.8C0 3378 0 3289 0 3200C0 3111 0 3022 0 2933.2C0 2844.3 0 2755.7 0 2666.8C0 2578 0 2489 0 2400C0 2311 0 2222 0 2133.2C0 2044.3 0 1955.7 0 1866.8C0 1778 0 1689 0 1600C0 1511 0 1422 0 1333.2C0 1244.3 0 1155.7 0 1066.8C0 978 0 889 0 800C0 711 0 622 0 533.2C0 444.3 0 355.7 0 266.8C0 178 0 89 0 44.5L0 0Z" fill="#b0b0b0"></path></svg>