<svg x="0" y="0" id="visual" viewBox="0 0 900 1080" width="900" height="1080" xmlns="http://www.w3.org/2000/svg" xmlns:xlink="http://www.w3.org/1999/xlink" version="1.1">
<path d="M614 1080L617.3 1054.3C620.7 1028.7 627.3 977.3 627.2 925.8C627 874.3 620 822.7 631.5 771.2C643 719.7 673 668.3 681.2 617C689.3 565.7 675.7 514.3 672 463C668.3 411.7 674.7 360.3 678.2 308.8C681.7 257.3 682.3 205.7 670.8 154.2C659.3 102.7 635.7 51.3 623.8 25.7L612 0L900 0L900 25.7C900 51.3 900 102.7 900 154.2C900 205.7 900 257.3 900 308.8C900 360.3 900 411.7 900 463C900 514.3 900 565.7 900 617C900 668.3 900 719.7 900 771.2C900 822.7 900 874.3 900 925.8C900 977.3 900 1028.7 900 1054.3L900 1080Z" fill="#575757"></path>
<path d="M759 1080L762.7 1054.3C766.3 1028.7 773.7 977.3 779 925.8C784.3 874.3 787.7 822.7 785.3 771.2C783 719.7 775 668.3 764 617C753 565.7 739 514.3 742.8 463C746.7 411.7 768.3 360.3 778.3 308.8C788.3 257.3 786.7 205.7 785.3 154.2C784 102.7 783 51.3 782.5 25.7L782 0L900 0L900 25.7C900 51.3 900 102.7 900 154.2C900 205.7 900 257.3 900 308.8C900 360.3 900 411.7 900 463C900 514.3 900 565.7 900 617C900 668.3 900 719.7 900 771.2C900 822.7 900 874.3 900 925.8C900 977.3 900 1028.7 900 1054.3L900 1080Z" fill="#828282"></path>
<path d="M848 1080L839.7 1054.3C831.3 1028.7 814.7 977.3 813 925.8C811.3 874.3 824.7 822.7 831.2 771.2C837.7 719.7 837.3 668.3 830.8 617C824.3 565.7 811.7 514.3 808.7 463C805.7 411.7 812.3 360.3 817.3 308.8C822.3 257.3 825.7 205.7 825.5 154.2C825.3 102.7 821.7 51.3 819.8 25.7L818 0L900 0L900 25.7C900 51.3 900 102.7 900 154.2C900 205.7 900 257.3 900 308.8C900 360.3 900 411.7 900 463C900 514.3 900 565.7 900 617C900 668.3 900 719.7 900 771.2C900 822.7 900 874.3 900 925.8C900 977.3 900 1028.7 900 1054.3L900 1080Z" fill="#b0b0b0"></path></svg>