<svg id="visual" viewBox="0 0 900 600" width="900" height="600" xmlns="http://www.w3.org/2000/svg" xmlns:xlink="http://www.w3.org/1999/xlink" version="1.1"><path d="M156 0L160.5 14.3C165 28.7 174 57.3 177 85.8C180 114.3 177 142.7 169.7 171.2C162.3 199.7 150.7 228.3 152 257C153.3 285.7 167.7 314.3 162.2 343C156.7 371.7 131.3 400.3 139.5 428.8C147.7 457.3 189.3 485.7 202.3 514.2C215.3 542.7 199.7 571.3 191.8 585.7L184 600L0 600L0 585.7C0 571.3 0 542.7 0 514.2C0 485.7 0 457.3 0 428.8C0 400.3 0 371.7 0 343C0 314.3 0 285.7 0 257C0 228.3 0 199.7 0 171.2C0 142.7 0 114.3 0 85.8C0 57.3 0 28.7 0 14.3L0 0Z" fill="#575757"></path><path d="M105 0L118 14.3C131 28.7 157 57.3 164.5 85.8C172 114.3 161 142.7 154.8 171.2C148.7 199.7 147.3 228.3 141.7 257C136 285.7 126 314.3 116 343C106 371.7 96 400.3 104.8 428.8C113.7 457.3 141.3 485.7 147.2 514.2C153 542.7 137 571.3 129 585.7L121 600L0 600L0 585.7C0 571.3 0 542.7 0 514.2C0 485.7 0 457.3 0 428.8C0 400.3 0 371.7 0 343C0 314.3 0 285.7 0 257C0 228.3 0 199.7 0 171.2C0 142.7 0 114.3 0 85.8C0 57.3 0 28.7 0 14.3L0 0Z" fill="#828282"></path><path d="M70 0L75.5 14.3C81 28.7 92 57.3 100.8 85.8C109.7 114.3 116.3 142.7 107.3 171.2C98.3 199.7 73.7 228.3 68.3 257C63 285.7 77 314.3 91 343C105 371.7 119 400.3 117.7 428.8C116.3 457.3 99.7 485.7 94 514.2C88.3 542.7 93.7 571.3 96.3 585.7L99 600L0 600L0 585.7C0 571.3 0 542.7 0 514.2C0 485.7 0 457.3 0 428.8C0 400.3 0 371.7 0 343C0 314.3 0 285.7 0 257C0 228.3 0 199.7 0 171.2C0 142.7 0 114.3 0 85.8C0 57.3 0 28.7 0 14.3L0 0Z" fill="#b0b0b0"></path><path d="M57 0L59.2 14.3C61.3 28.7 65.7 57.3 68.3 85.8C71 114.3 72 142.7 65.3 171.2C58.7 199.7 44.3 228.3 42 257C39.7 285.7 49.3 314.3 52.2 343C55 371.7 51 400.3 51 428.8C51 457.3 55 485.7 57.2 514.2C59.3 542.7 59.7 571.3 59.8 585.7L60 600L0 600L0 585.7C0 571.3 0 542.7 0 514.2C0 485.7 0 457.3 0 428.8C0 400.3 0 371.7 0 343C0 314.3 0 285.7 0 257C0 228.3 0 199.7 0 171.2C0 142.7 0 114.3 0 85.8C0 57.3 0 28.7 0 14.3L0 0Z" fill="#e0e0e0"></path></svg>