<svg id="visual" viewBox="0 0 900 900" width="900" height="900" xmlns="http://www.w3.org/2000/svg" xmlns:xlink="http://www.w3.org/1999/xlink" version="1.1"><path d="M156 0L150.3 18.8C144.7 37.7 133.3 75.3 130.2 112.8C127 150.3 132 187.7 136.3 225.2C140.7 262.7 144.3 300.3 141.5 337.8C138.7 375.3 129.3 412.7 121.8 450.2C114.3 487.7 108.7 525.3 112.3 562.8C116 600.3 129 637.7 133.5 675.2C138 712.7 134 750.3 133.2 787.8C132.3 825.3 134.7 862.7 135.8 881.3L137 900L0 900L0 881.3C0 862.7 0 825.3 0 787.8C0 750.3 0 712.7 0 675.2C0 637.7 0 600.3 0 562.8C0 525.3 0 487.7 0 450.2C0 412.7 0 375.3 0 337.8C0 300.3 0 262.7 0 225.2C0 187.7 0 150.3 0 112.8C0 75.3 0 37.7 0 18.8L0 0Z" fill="#575757"></path><path d="M67 0L71.5 18.8C76 37.7 85 75.3 92 112.8C99 150.3 104 187.7 97.5 225.2C91 262.7 73 300.3 72 337.8C71 375.3 87 412.7 89.7 450.2C92.3 487.7 81.7 525.3 74.7 562.8C67.7 600.3 64.3 637.7 65.8 675.2C67.3 712.7 73.7 750.3 79.7 787.8C85.7 825.3 91.3 862.7 94.2 881.3L97 900L0 900L0 881.3C0 862.7 0 825.3 0 787.8C0 750.3 0 712.7 0 675.2C0 637.7 0 600.3 0 562.8C0 525.3 0 487.7 0 450.2C0 412.7 0 375.3 0 337.8C0 300.3 0 262.7 0 225.2C0 187.7 0 150.3 0 112.8C0 75.3 0 37.7 0 18.8L0 0Z" fill="#828282"></path><path d="M42 0L39 18.8C36 37.7 30 75.3 34.2 112.8C38.3 150.3 52.7 187.7 55.3 225.2C58 262.7 49 300.3 47.2 337.8C45.3 375.3 50.7 412.7 47.8 450.2C45 487.7 34 525.3 34.2 562.8C34.3 600.3 45.7 637.7 48.7 675.2C51.7 712.7 46.3 750.3 44.7 787.8C43 825.3 45 862.7 46 881.3L47 900L0 900L0 881.3C0 862.7 0 825.3 0 787.8C0 750.3 0 712.7 0 675.2C0 637.7 0 600.3 0 562.8C0 525.3 0 487.7 0 450.2C0 412.7 0 375.3 0 337.8C0 300.3 0 262.7 0 225.2C0 187.7 0 150.3 0 112.8C0 75.3 0 37.7 0 18.8L0 0Z" fill="#b0b0b0"></path></svg>