<svg id="visual" viewBox="0 0 450 2200" width="450" height="2200" xmlns="http://www.w3.org/2000/svg" xmlns:xlink="http://www.w3.org/1999/xlink" version="1.1"><path d="M431 2200L429.5 2175.5C428 2151 425 2102 422.2 2053.2C419.3 2004.3 416.7 1955.7 415 1906.8C413.3 1858 412.7 1809 413.7 1760C414.7 1711 417.3 1662 417.2 1613.2C417 1564.3 414 1515.7 412.5 1466.8C411 1418 411 1369 412 1320C413 1271 415 1222 418.3 1173.2C421.7 1124.3 426.3 1075.7 428.5 1026.8C430.7 978 430.3 929 429.2 880C428 831 426 782 423.3 733.2C420.7 684.3 417.3 635.7 415.5 586.8C413.7 538 413.3 489 414.3 440C415.3 391 417.7 342 417.5 293.2C417.3 244.3 414.7 195.7 414.3 146.8C414 98 416 49 417 24.5L418 0L450 0L450 24.5C450 49 450 98 450 146.8C450 195.7 450 244.3 450 293.2C450 342 450 391 450 440C450 489 450 538 450 586.8C450 635.7 450 684.3 450 733.2C450 782 450 831 450 880C450 929 450 978 450 1026.8C450 1075.7 450 1124.3 450 1173.2C450 1222 450 1271 450 1320C450 1369 450 1418 450 1466.8C450 1515.7 450 1564.3 450 1613.2C450 1662 450 1711 450 1760C450 1809 450 1858 450 1906.8C450 1955.7 450 2004.3 450 2053.2C450 2102 450 2151 450 2175.5L450 2200Z" fill="#b0b0b0"></path><path d="M426 2200L429 2175.5C432 2151 438 2102 438.8 2053.2C439.7 2004.3 435.3 1955.7 433.8 1906.8C432.3 1858 433.7 1809 433.3 1760C433 1711 431 1662 432.3 1613.2C433.7 1564.3 438.3 1515.7 440.8 1466.8C443.3 1418 443.7 1369 443.2 1320C442.7 1271 441.3 1222 439 1173.2C436.7 1124.3 433.3 1075.7 431.2 1026.8C429 978 428 929 428.5 880C429 831 431 782 432.8 733.2C434.7 684.3 436.3 635.7 435.7 586.8C435 538 432 489 432.3 440C432.7 391 436.3 342 439 293.2C441.7 244.3 443.3 195.7 443.3 146.8C443.3 98 441.7 49 440.8 24.5L440 0L450 0L450 24.5C450 49 450 98 450 146.8C450 195.7 450 244.3 450 293.2C450 342 450 391 450 440C450 489 450 538 450 586.8C450 635.7 450 684.3 450 733.2C450 782 450 831 450 880C450 929 450 978 450 1026.8C450 1075.7 450 1124.3 450 1173.2C450 1222 450 1271 450 1320C450 1369 450 1418 450 1466.8C450 1515.7 450 1564.3 450 1613.2C450 1662 450 1711 450 1760C450 1809 450 1858 450 1906.8C450 1955.7 450 2004.3 450 2053.2C450 2102 450 2151 450 2175.5L450 2200Z" fill="#b0b0b0"></path></svg>