<svg id="visual" viewBox="0 0 450 4000" width="450" height="4000" xmlns="http://www.w3.org/2000/svg" xmlns:xlink="http://www.w3.org/1999/xlink" version="1.1"><path d="M431 4000L429.5 3955.5C428 3911 425 3822 422.2 3733.2C419.3 3644.3 416.7 3555.7 415 3466.8C413.3 3378 412.7 3289 413.7 3200C414.7 3111 417.3 3022 417.2 2933.2C417 2844.3 414 2755.7 412.5 2666.8C411 2578 411 2489 412 2400C413 2311 415 2222 418.3 2133.2C421.7 2044.3 426.3 1955.7 428.5 1866.8C430.7 1778 430.3 1689 429.2 1600C428 1511 426 1422 423.3 1333.2C420.7 1244.3 417.3 1155.7 415.5 1066.8C413.7 978 413.3 889 414.3 800C415.3 711 417.7 622 417.5 533.2C417.3 444.3 414.7 355.7 414.3 266.8C414 178 416 89 417 44.5L418 0L450 0L450 44.5C450 89 450 178 450 266.8C450 355.7 450 444.3 450 533.2C450 622 450 711 450 800C450 889 450 978 450 1066.8C450 1155.7 450 1244.3 450 1333.2C450 1422 450 1511 450 1600C450 1689 450 1778 450 1866.8C450 1955.7 450 2044.3 450 2133.2C450 2222 450 2311 450 2400C450 2489 450 2578 450 2666.8C450 2755.7 450 2844.3 450 2933.2C450 3022 450 3111 450 3200C450 3289 450 3378 450 3466.8C450 3555.7 450 3644.3 450 3733.2C450 3822 450 3911 450 3955.5L450 4000Z" fill="#b0b0b0"></path><path d="M426 4000L429 3955.5C432 3911 438 3822 438.8 3733.2C439.7 3644.3 435.3 3555.7 433.8 3466.8C432.3 3378 433.7 3289 433.3 3200C433 3111 431 3022 432.3 2933.2C433.7 2844.3 438.3 2755.7 440.8 2666.8C443.3 2578 443.7 2489 443.2 2400C442.7 2311 441.3 2222 439 2133.2C436.7 2044.3 433.3 1955.7 431.2 1866.8C429 1778 428 1689 428.5 1600C429 1511 431 1422 432.8 1333.2C434.7 1244.3 436.3 1155.7 435.7 1066.8C435 978 432 889 432.3 800C432.7 711 436.3 622 439 533.2C441.7 444.3 443.3 355.7 443.3 266.8C443.3 178 441.7 89 440.8 44.5L440 0L450 0L450 44.5C450 89 450 178 450 266.8C450 355.7 450 444.3 450 533.2C450 622 450 711 450 800C450 889 450 978 450 1066.8C450 1155.7 450 1244.3 450 1333.2C450 1422 450 1511 450 1600C450 1689 450 1778 450 1866.8C450 1955.7 450 2044.3 450 2133.2C450 2222 450 2311 450 2400C450 2489 450 2578 450 2666.8C450 2755.7 450 2844.3 450 2933.2C450 3022 450 3111 450 3200C450 3289 450 3378 450 3466.8C450 3555.7 450 3644.3 450 3733.2C450 3822 450 3911 450 3955.5L450 4000Z" fill="#b0b0b0"></path></svg>