<svg id="visual" preserveAspectRatio="xMinYMin slice" viewBox="0 0 700 2200" xmlns="http://www.w3.org/2000/svg" xmlns:xlink="http://www.w3.org/1999/xlink" version="1.1"><path d="M854 2200L800 2031L773 1862L764 1692L791 1523L827 1354L854 1185L755 1015L836 846L773 677L836 508L764 338L809 169L836 0L900 0L900 169L900 338L900 508L900 677L900 846L900 1015L900 1185L900 1354L900 1523L900 1692L900 1862L900 2031L900 2200Z" fill="#b0b0b0"></path><path d="M755 2200L665 2031L656 1862L593 1692L647 1523L692 1354L710 1185L665 1015L683 846L656 677L746 508L701 338L728 169L593 0L837 0L810 169L765 338L837 508L774 677L837 846L756 1015L855 1185L828 1354L792 1523L765 1692L774 1862L801 2031L855 2200Z" fill="#a5a5a5"></path><path d="M629 2200L620 2031L593 1862L512 1692L566 1523L611 1354L638 1185L620 1015L584 846L611 677L620 508L656 338L620 169L539 0L594 0L729 169L702 338L747 508L657 677L684 846L666 1015L711 1185L693 1354L648 1523L594 1692L657 1862L666 2031L756 2200Z" fill="#9a9a9a"></path><path d="M377 2200L314 2031L467 1862L269 1692L305 1523L332 1354L224 1185L431 1015L233 846L305 677L377 508L422 338L449 169L287 0L540 0L621 169L657 338L621 508L612 677L585 846L621 1015L639 1185L612 1354L567 1523L513 1692L594 1862L621 2031L630 2200Z" fill="#8e8e8e"></path><path d="M134 2200L179 2031L62 1862L134 1692L125 1523L71 1354L71 1185L125 1015L53 846L170 677L80 508L170 338L152 169L107 0L288 0L450 169L423 338L378 508L306 677L234 846L432 1015L225 1185L333 1354L306 1523L270 1692L468 1862L315 2031L378 2200Z" fill="#838383"></path><path d="M0 2200L0 2031L0 1862L0 1692L0 1523L0 1354L0 1185L0 1015L0 846L0 677L0 508L0 338L0 169L0 0L108 0L153 169L171 338L81 508L171 677L54 846L126 1015L72 1185L72 1354L126 1523L135 1692L63 1862L180 2031L135 2200Z" fill="#787878"></path></svg>