<svg id="visual" viewBox="0 0 900 4000" preserveAspectRatio="xMinYMin slice" width="900" height="4000" xmlns="http://www.w3.org/2000/svg" xmlns:xlink="http://www.w3.org/1999/xlink" version="1.1"><path preserveAspectRatio="xMinYMin slice" d="M854 4000L800 3692L773 3385L764 3077L791 2769L827 2462L854 2154L755 1846L836 1538L773 1231L836 923L764 615L809 308L836 0L900 0L900 308L900 615L900 923L900 1231L900 1538L900 1846L900 2154L900 2462L900 2769L900 3077L900 3385L900 3692L900 4000Z" fill="#b0b0b0"></path><path preserveAspectRatio="xMinYMin slice" d="M755 4000L665 3692L656 3385L593 3077L647 2769L692 2462L710 2154L665 1846L683 1538L656 1231L746 923L701 615L728 308L593 0L837 0L810 308L765 615L837 923L774 1231L837 1538L756 1846L855 2154L828 2462L792 2769L765 3077L774 3385L801 3692L855 4000Z" fill="#a5a5a5"></path><path preserveAspectRatio="xMinYMin slice" d="M629 4000L620 3692L593 3385L512 3077L566 2769L611 2462L638 2154L620 1846L584 1538L611 1231L620 923L656 615L620 308L539 0L594 0L729 308L702 615L747 923L657 1231L684 1538L666 1846L711 2154L693 2462L648 2769L594 3077L657 3385L666 3692L756 4000Z" fill="#9a9a9a"></path><path preserveAspectRatio="xMinYMin slice" d="M377 4000L314 3692L467 3385L269 3077L305 2769L332 2462L224 2154L431 1846L233 1538L305 1231L377 923L422 615L449 308L287 0L540 0L621 308L657 615L621 923L612 1231L585 1538L621 1846L639 2154L612 2462L567 2769L513 3077L594 3385L621 3692L630 4000Z" fill="#8e8e8e"></path><path preserveAspectRatio="xMinYMin slice" d="M134 4000L179 3692L62 3385L134 3077L125 2769L71 2462L71 2154L125 1846L53 1538L170 1231L80 923L170 615L152 308L107 0L288 0L450 308L423 615L378 923L306 1231L234 1538L432 1846L225 2154L333 2462L306 2769L270 3077L468 3385L315 3692L378 4000Z" fill="#838383"></path><path preserveAspectRatio="xMinYMin slice" d="M0 4000L0 3692L0 3385L0 3077L0 2769L0 2462L0 2154L0 1846L0 1538L0 1231L0 923L0 615L0 308L0 0L108 0L153 308L171 615L81 923L171 1231L54 1538L126 1846L72 2154L72 2462L126 2769L135 3077L63 3385L180 3692L135 4000Z" fill="#787878"></path></svg>