<svg id="visual" viewBox="0 0 900 2200" width="900" height="2200" xmlns="http://www.w3.org/2000/svg" xmlns:xlink="http://www.w3.org/1999/xlink" version="1.1"><g stroke-width="1" stroke-linejoin="bevel"><path d="M453 1110L528 1020L398 1054Z" fill="#1d4e6b" stroke="#1d4e6b"></path><path d="M570 1063L556 1023L528 1020Z" fill="#00101c" stroke="#00101c"></path><path d="M453 1110L570 1063L528 1020Z" fill="#277297" stroke="#277297"></path><path d="M440 908L352 1026L398 1054Z" fill="#00101c" stroke="#00101c"></path><path d="M398 1054L364 1210L453 1110Z" fill="#205a7a" stroke="#205a7a"></path><path d="M469 869L440 908L528 1020Z" fill="#00101c" stroke="#00101c"></path><path d="M528 1020L440 908L398 1054Z" fill="#297ea6" stroke="#297ea6"></path><path d="M440 908L335 955L352 1026Z" fill="#19435d" stroke="#19435d"></path><path d="M629 941L469 869L528 1020Z" fill="#246688" stroke="#246688"></path><path d="M440 908L270 898L335 955Z" fill="#297ea6" stroke="#297ea6"></path><path d="M678 1042L629 941L556 1023Z" fill="#1d4e6b" stroke="#1d4e6b"></path><path d="M556 1023L629 941L528 1020Z" fill="#277297" stroke="#277297"></path><path d="M259 1055L398 1054L352 1026Z" fill="#112e42" stroke="#112e42"></path><path d="M302 1206L364 1210L398 1054Z" fill="#205a7a" stroke="#205a7a"></path><path d="M453 1110L564 1225L570 1063Z" fill="#205a7a" stroke="#205a7a"></path><path d="M364 1210L474 1241L453 1110Z" fill="#00101c" stroke="#00101c"></path><path d="M335 955L259 1055L352 1026Z" fill="#297ea6" stroke="#297ea6"></path><path d="M474 1241L564 1225L453 1110Z" fill="#0c2435" stroke="#0c2435"></path><path d="M570 1063L678 1042L556 1023Z" fill="#277297" stroke="#277297"></path><path d="M702 1099L678 1042L570 1063Z" fill="#0c2435" stroke="#0c2435"></path><path d="M259 1055L302 1206L398 1054Z" fill="#205a7a" stroke="#205a7a"></path><path d="M364 1210L355 1269L474 1241Z" fill="#15384f" stroke="#15384f"></path><path d="M564 1225L652 1177L570 1063Z" fill="#081a28" stroke="#081a28"></path><path d="M343 766L270 898L440 908Z" fill="#205a7a" stroke="#205a7a"></path><path d="M335 955L216 965L259 1055Z" fill="#277297" stroke="#277297"></path><path d="M652 1177L702 1099L570 1063Z" fill="#15384f" stroke="#15384f"></path><path d="M678 1042L693 943L629 941Z" fill="#15384f" stroke="#15384f"></path><path d="M637 821L521 787L469 869Z" fill="#1d4e6b" stroke="#1d4e6b"></path><path d="M793 968L693 943L678 1042Z" fill="#0c2435" stroke="#0c2435"></path><path d="M302 1206L355 1269L364 1210Z" fill="#297ea6" stroke="#297ea6"></path><path d="M511 1377L623 1293L564 1225Z" fill="#15384f" stroke="#15384f"></path><path d="M270 898L216 965L335 955Z" fill="#00101c" stroke="#00101c"></path><path d="M259 1055L231 1240L302 1206Z" fill="#297ea6" stroke="#297ea6"></path><path d="M637 821L469 869L629 941Z" fill="#277297" stroke="#277297"></path><path d="M469 869L432 780L440 908Z" fill="#081a28" stroke="#081a28"></path><path d="M521 787L432 780L469 869Z" fill="#297ea6" stroke="#297ea6"></path><path d="M705 837L637 821L629 941Z" fill="#0c2435" stroke="#0c2435"></path><path d="M511 1377L564 1225L474 1241Z" fill="#246688" stroke="#246688"></path><path d="M564 1225L623 1293L652 1177Z" fill="#297ea6" stroke="#297ea6"></path><path d="M652 1177L753 1197L702 1099Z" fill="#112e42" stroke="#112e42"></path><path d="M189 787L211 887L270 898Z" fill="#112e42" stroke="#112e42"></path><path d="M270 898L211 887L216 965Z" fill="#1d4e6b" stroke="#1d4e6b"></path><path d="M355 1269L453 1342L474 1241Z" fill="#0c2435" stroke="#0c2435"></path><path d="M144 1037L165 1067L216 965Z" fill="#112e42" stroke="#112e42"></path><path d="M216 965L165 1067L259 1055Z" fill="#205a7a" stroke="#205a7a"></path><path d="M302 1206L231 1240L355 1269Z" fill="#15384f" stroke="#15384f"></path><path d="M376 653L343 766L432 780Z" fill="#277297" stroke="#277297"></path><path d="M432 780L343 766L440 908Z" fill="#081a28" stroke="#081a28"></path><path d="M165 1067L231 1240L259 1055Z" fill="#15384f" stroke="#15384f"></path><path d="M355 1269L340 1346L453 1342Z" fill="#1d4e6b" stroke="#1d4e6b"></path><path d="M585 700L497 734L521 787Z" fill="#0c2435" stroke="#0c2435"></path><path d="M521 787L497 734L432 780Z" fill="#19435d" stroke="#19435d"></path><path d="M778 855L705 837L693 943Z" fill="#205a7a" stroke="#205a7a"></path><path d="M693 943L705 837L629 941Z" fill="#0c2435" stroke="#0c2435"></path><path d="M637 821L585 700L521 787Z" fill="#246688" stroke="#246688"></path><path d="M623 1293L705 1252L652 1177Z" fill="#246688" stroke="#246688"></path><path d="M831 1068L793 968L678 1042Z" fill="#19435d" stroke="#19435d"></path><path d="M127 897L144 1037L216 965Z" fill="#15384f" stroke="#15384f"></path><path d="M165 1067L92 1110L231 1240Z" fill="#081a28" stroke="#081a28"></path><path d="M705 1252L753 1197L652 1177Z" fill="#246688" stroke="#246688"></path><path d="M238 1324L340 1346L355 1269Z" fill="#00101c" stroke="#00101c"></path><path d="M415 1406L511 1377L453 1342Z" fill="#246688" stroke="#246688"></path><path d="M453 1342L511 1377L474 1241Z" fill="#15384f" stroke="#15384f"></path><path d="M726 1435L810 1305L705 1252Z" fill="#1d4e6b" stroke="#1d4e6b"></path><path d="M831 1068L678 1042L702 1099Z" fill="#19435d" stroke="#19435d"></path><path d="M231 1240L238 1324L355 1269Z" fill="#15384f" stroke="#15384f"></path><path d="M182 1354L238 1324L231 1240Z" fill="#1d4e6b" stroke="#1d4e6b"></path><path d="M673 729L585 700L637 821Z" fill="#1d4e6b" stroke="#1d4e6b"></path><path d="M497 734L376 653L432 780Z" fill="#15384f" stroke="#15384f"></path><path d="M793 968L778 855L693 943Z" fill="#19435d" stroke="#19435d"></path><path d="M705 837L673 729L637 821Z" fill="#00101c" stroke="#00101c"></path><path d="M444 1458L415 1406L307 1463Z" fill="#112e42" stroke="#112e42"></path><path d="M340 1346L415 1406L453 1342Z" fill="#277297" stroke="#277297"></path><path d="M753 1197L831 1068L702 1099Z" fill="#277297" stroke="#277297"></path><path d="M900 924L839 831L778 855Z" fill="#112e42" stroke="#112e42"></path><path d="M117 827L127 897L211 887Z" fill="#081a28" stroke="#081a28"></path><path d="M211 887L127 897L216 965Z" fill="#246688" stroke="#246688"></path><path d="M343 766L189 787L270 898Z" fill="#205a7a" stroke="#205a7a"></path><path d="M317 669L189 787L343 766Z" fill="#277297" stroke="#277297"></path><path d="M781 695L673 729L705 837Z" fill="#277297" stroke="#277297"></path><path d="M0 1071L92 1110L144 1037Z" fill="#112e42" stroke="#112e42"></path><path d="M144 1037L92 1110L165 1067Z" fill="#00101c" stroke="#00101c"></path><path d="M533 609L376 653L497 734Z" fill="#00101c" stroke="#00101c"></path><path d="M376 653L317 669L343 766Z" fill="#1d4e6b" stroke="#1d4e6b"></path><path d="M444 1458L578 1437L511 1377Z" fill="#0c2435" stroke="#0c2435"></path><path d="M511 1377L578 1437L623 1293Z" fill="#297ea6" stroke="#297ea6"></path><path d="M705 1252L810 1305L753 1197Z" fill="#0c2435" stroke="#0c2435"></path><path d="M189 787L117 827L211 887Z" fill="#15384f" stroke="#15384f"></path><path d="M0 996L0 1071L144 1037Z" fill="#205a7a" stroke="#205a7a"></path><path d="M99 658L117 827L189 787Z" fill="#277297" stroke="#277297"></path><path d="M92 1110L113 1261L231 1240Z" fill="#1d4e6b" stroke="#1d4e6b"></path><path d="M307 1463L415 1406L340 1346Z" fill="#205a7a" stroke="#205a7a"></path><path d="M415 1406L444 1458L511 1377Z" fill="#205a7a" stroke="#205a7a"></path><path d="M265 1426L340 1346L238 1324Z" fill="#112e42" stroke="#112e42"></path><path d="M113 1261L182 1354L231 1240Z" fill="#205a7a" stroke="#205a7a"></path><path d="M900 924L778 855L793 968Z" fill="#0c2435" stroke="#0c2435"></path><path d="M778 855L781 695L705 837Z" fill="#112e42" stroke="#112e42"></path><path d="M182 1354L265 1426L238 1324Z" fill="#1d4e6b" stroke="#1d4e6b"></path><path d="M726 1435L705 1252L623 1293Z" fill="#15384f" stroke="#15384f"></path><path d="M753 1197L900 1166L831 1068Z" fill="#246688" stroke="#246688"></path><path d="M900 1166L900 1054L831 1068Z" fill="#081a28" stroke="#081a28"></path><path d="M831 1068L900 970L793 968Z" fill="#297ea6" stroke="#297ea6"></path><path d="M554 588L533 609L585 700Z" fill="#19435d" stroke="#19435d"></path><path d="M585 700L533 609L497 734Z" fill="#112e42" stroke="#112e42"></path><path d="M230 588L194 664L317 669Z" fill="#081a28" stroke="#081a28"></path><path d="M554 588L585 700L716 583Z" fill="#277297" stroke="#277297"></path><path d="M900 1054L900 970L831 1068Z" fill="#297ea6" stroke="#297ea6"></path><path d="M92 1110L65 1238L113 1261Z" fill="#297ea6" stroke="#297ea6"></path><path d="M113 1261L65 1424L182 1354Z" fill="#112e42" stroke="#112e42"></path><path d="M0 1222L65 1238L92 1110Z" fill="#19435d" stroke="#19435d"></path><path d="M234 1472L307 1463L265 1426Z" fill="#15384f" stroke="#15384f"></path><path d="M265 1426L307 1463L340 1346Z" fill="#15384f" stroke="#15384f"></path><path d="M900 970L900 924L793 968Z" fill="#19435d" stroke="#19435d"></path><path d="M900 1272L900 1166L753 1197Z" fill="#0c2435" stroke="#0c2435"></path><path d="M534 1540L640 1469L578 1437Z" fill="#1d4e6b" stroke="#1d4e6b"></path><path d="M578 1437L640 1469L623 1293Z" fill="#081a28" stroke="#081a28"></path><path d="M534 1540L578 1437L444 1458Z" fill="#112e42" stroke="#112e42"></path><path d="M716 583L585 700L673 729Z" fill="#297ea6" stroke="#297ea6"></path><path d="M374 557L310 589L376 653Z" fill="#081a28" stroke="#081a28"></path><path d="M0 996L144 1037L127 897Z" fill="#205a7a" stroke="#205a7a"></path><path d="M310 589L317 669L376 653Z" fill="#112e42" stroke="#112e42"></path><path d="M317 669L194 664L189 787Z" fill="#19435d" stroke="#19435d"></path><path d="M0 866L0 996L127 897Z" fill="#277297" stroke="#277297"></path><path d="M0 866L127 897L117 827Z" fill="#081a28" stroke="#081a28"></path><path d="M900 689L781 695L839 831Z" fill="#277297" stroke="#277297"></path><path d="M839 831L781 695L778 855Z" fill="#15384f" stroke="#15384f"></path><path d="M640 1469L726 1435L623 1293Z" fill="#0c2435" stroke="#0c2435"></path><path d="M810 1305L900 1272L753 1197Z" fill="#246688" stroke="#246688"></path><path d="M374 557L376 653L533 609Z" fill="#205a7a" stroke="#205a7a"></path><path d="M182 1354L234 1472L265 1426Z" fill="#15384f" stroke="#15384f"></path><path d="M503 1583L534 1540L444 1458Z" fill="#112e42" stroke="#112e42"></path><path d="M65 1424L234 1472L182 1354Z" fill="#19435d" stroke="#19435d"></path><path d="M900 924L900 820L839 831Z" fill="#277297" stroke="#277297"></path><path d="M771 1480L790 1412L726 1435Z" fill="#1d4e6b" stroke="#1d4e6b"></path><path d="M726 1435L790 1412L810 1305Z" fill="#15384f" stroke="#15384f"></path><path d="M900 1407L900 1272L810 1305Z" fill="#19435d" stroke="#19435d"></path><path d="M522 540L374 557L533 609Z" fill="#297ea6" stroke="#297ea6"></path><path d="M0 838L0 866L117 827Z" fill="#0c2435" stroke="#0c2435"></path><path d="M0 1071L0 1222L92 1110Z" fill="#205a7a" stroke="#205a7a"></path><path d="M65 1238L0 1316L113 1261Z" fill="#19435d" stroke="#19435d"></path><path d="M503 1583L444 1458L387 1636Z" fill="#00101c" stroke="#00101c"></path><path d="M640 1469L733 1488L726 1435Z" fill="#205a7a" stroke="#205a7a"></path><path d="M578 457L522 540L554 588Z" fill="#246688" stroke="#246688"></path><path d="M554 588L522 540L533 609Z" fill="#205a7a" stroke="#205a7a"></path><path d="M0 719L0 838L117 827Z" fill="#205a7a" stroke="#205a7a"></path><path d="M310 589L230 588L317 669Z" fill="#0c2435" stroke="#0c2435"></path><path d="M194 664L99 658L189 787Z" fill="#0c2435" stroke="#0c2435"></path><path d="M280 524L230 588L310 589Z" fill="#15384f" stroke="#15384f"></path><path d="M759 1555L733 1488L640 1469Z" fill="#081a28" stroke="#081a28"></path><path d="M790 1412L900 1407L810 1305Z" fill="#205a7a" stroke="#205a7a"></path><path d="M837 598L716 583L781 695Z" fill="#112e42" stroke="#112e42"></path><path d="M781 695L716 583L673 729Z" fill="#246688" stroke="#246688"></path><path d="M89 641L99 658L194 664Z" fill="#277297" stroke="#277297"></path><path d="M759 1555L771 1480L733 1488Z" fill="#205a7a" stroke="#205a7a"></path><path d="M733 1488L771 1480L726 1435Z" fill="#297ea6" stroke="#297ea6"></path><path d="M0 1222L0 1316L65 1238Z" fill="#19435d" stroke="#19435d"></path><path d="M387 1636L444 1458L307 1463Z" fill="#1d4e6b" stroke="#1d4e6b"></path><path d="M637 1634L759 1555L640 1469Z" fill="#1d4e6b" stroke="#1d4e6b"></path><path d="M160 545L89 641L194 664Z" fill="#246688" stroke="#246688"></path><path d="M99 658L0 719L117 827Z" fill="#112e42" stroke="#112e42"></path><path d="M374 557L280 524L310 589Z" fill="#15384f" stroke="#15384f"></path><path d="M230 588L160 545L194 664Z" fill="#15384f" stroke="#15384f"></path><path d="M326 389L280 524L374 557Z" fill="#1d4e6b" stroke="#1d4e6b"></path><path d="M0 1316L65 1424L113 1261Z" fill="#246688" stroke="#246688"></path><path d="M234 1472L265 1580L307 1463Z" fill="#205a7a" stroke="#205a7a"></path><path d="M900 820L900 689L839 831Z" fill="#15384f" stroke="#15384f"></path><path d="M89 641L0 719L99 658Z" fill="#277297" stroke="#277297"></path><path d="M771 1480L900 1407L790 1412Z" fill="#1d4e6b" stroke="#1d4e6b"></path><path d="M0 1316L0 1375L65 1424Z" fill="#15384f" stroke="#15384f"></path><path d="M100 1540L234 1472L65 1424Z" fill="#112e42" stroke="#112e42"></path><path d="M158 1596L265 1580L234 1472Z" fill="#297ea6" stroke="#297ea6"></path><path d="M791 542L707 524L716 583Z" fill="#19435d" stroke="#19435d"></path><path d="M716 583L707 524L554 588Z" fill="#1d4e6b" stroke="#1d4e6b"></path><path d="M522 540L437 452L374 557Z" fill="#277297" stroke="#277297"></path><path d="M900 689L837 598L781 695Z" fill="#0c2435" stroke="#0c2435"></path><path d="M280 524L160 545L230 588Z" fill="#0c2435" stroke="#0c2435"></path><path d="M89 641L0 619L0 719Z" fill="#277297" stroke="#277297"></path><path d="M637 1634L640 1469L534 1540Z" fill="#0c2435" stroke="#0c2435"></path><path d="M771 1480L900 1537L900 1407Z" fill="#081a28" stroke="#081a28"></path><path d="M578 457L437 452L522 540Z" fill="#246688" stroke="#246688"></path><path d="M70 392L93 544L160 545Z" fill="#277297" stroke="#277297"></path><path d="M707 524L578 457L554 588Z" fill="#112e42" stroke="#112e42"></path><path d="M265 1580L387 1636L307 1463Z" fill="#246688" stroke="#246688"></path><path d="M503 1583L637 1634L534 1540Z" fill="#277297" stroke="#277297"></path><path d="M837 598L791 542L716 583Z" fill="#0c2435" stroke="#0c2435"></path><path d="M610 362L545 407L578 457Z" fill="#081a28" stroke="#081a28"></path><path d="M575 1703L637 1634L503 1583Z" fill="#19435d" stroke="#19435d"></path><path d="M0 1464L100 1540L65 1424Z" fill="#205a7a" stroke="#205a7a"></path><path d="M265 1580L242 1706L387 1636Z" fill="#0c2435" stroke="#0c2435"></path><path d="M209 388L160 545L280 524Z" fill="#19435d" stroke="#19435d"></path><path d="M160 545L93 544L89 641Z" fill="#205a7a" stroke="#205a7a"></path><path d="M0 1375L0 1464L65 1424Z" fill="#081a28" stroke="#081a28"></path><path d="M677 1671L658 1641L637 1634Z" fill="#246688" stroke="#246688"></path><path d="M637 1634L658 1641L759 1555Z" fill="#112e42" stroke="#112e42"></path><path d="M387 1636L495 1671L503 1583Z" fill="#297ea6" stroke="#297ea6"></path><path d="M93 544L0 619L89 641Z" fill="#081a28" stroke="#081a28"></path><path d="M58 1597L158 1596L100 1540Z" fill="#1d4e6b" stroke="#1d4e6b"></path><path d="M100 1540L158 1596L234 1472Z" fill="#081a28" stroke="#081a28"></path><path d="M387 1636L370 1743L495 1671Z" fill="#112e42" stroke="#112e42"></path><path d="M610 362L578 457L717 388Z" fill="#112e42" stroke="#112e42"></path><path d="M578 457L545 407L437 452Z" fill="#205a7a" stroke="#205a7a"></path><path d="M437 452L326 389L374 557Z" fill="#297ea6" stroke="#297ea6"></path><path d="M837 598L900 552L791 542Z" fill="#15384f" stroke="#15384f"></path><path d="M717 388L578 457L707 524Z" fill="#15384f" stroke="#15384f"></path><path d="M900 689L900 552L837 598Z" fill="#00101c" stroke="#00101c"></path><path d="M900 1643L900 1537L759 1555Z" fill="#112e42" stroke="#112e42"></path><path d="M759 1555L900 1537L771 1480Z" fill="#19435d" stroke="#19435d"></path><path d="M658 1641L677 1671L759 1555Z" fill="#1d4e6b" stroke="#1d4e6b"></path><path d="M575 1703L677 1671L637 1634Z" fill="#277297" stroke="#277297"></path><path d="M442 344L399 380L437 452Z" fill="#081a28" stroke="#081a28"></path><path d="M539 1793L575 1703L495 1671Z" fill="#081a28" stroke="#081a28"></path><path d="M495 1671L575 1703L503 1583Z" fill="#081a28" stroke="#081a28"></path><path d="M399 380L326 389L437 452Z" fill="#205a7a" stroke="#205a7a"></path><path d="M0 1464L58 1597L100 1540Z" fill="#246688" stroke="#246688"></path><path d="M158 1596L242 1706L265 1580Z" fill="#246688" stroke="#246688"></path><path d="M717 388L707 524L791 542Z" fill="#112e42" stroke="#112e42"></path><path d="M545 407L442 344L437 452Z" fill="#00101c" stroke="#00101c"></path><path d="M145 1737L242 1706L158 1596Z" fill="#15384f" stroke="#15384f"></path><path d="M578 344L442 344L545 407Z" fill="#246688" stroke="#246688"></path><path d="M399 380L331 311L326 389Z" fill="#0c2435" stroke="#0c2435"></path><path d="M900 552L900 494L791 542Z" fill="#15384f" stroke="#15384f"></path><path d="M806 356L717 388L791 542Z" fill="#15384f" stroke="#15384f"></path><path d="M326 389L209 388L280 524Z" fill="#15384f" stroke="#15384f"></path><path d="M93 544L0 457L0 619Z" fill="#15384f" stroke="#15384f"></path><path d="M331 311L209 388L326 389Z" fill="#297ea6" stroke="#297ea6"></path><path d="M273 1738L370 1743L387 1636Z" fill="#19435d" stroke="#19435d"></path><path d="M647 233L578 344L610 362Z" fill="#00101c" stroke="#00101c"></path><path d="M610 362L578 344L545 407Z" fill="#081a28" stroke="#081a28"></path><path d="M242 1706L273 1738L387 1636Z" fill="#15384f" stroke="#15384f"></path><path d="M255 1779L273 1738L242 1706Z" fill="#081a28" stroke="#081a28"></path><path d="M0 1464L0 1598L58 1597Z" fill="#112e42" stroke="#112e42"></path><path d="M58 1597L145 1737L158 1596Z" fill="#00101c" stroke="#00101c"></path><path d="M384 1862L419 1780L370 1743Z" fill="#19435d" stroke="#19435d"></path><path d="M370 1743L419 1780L495 1671Z" fill="#0c2435" stroke="#0c2435"></path><path d="M746 1808L761 1778L677 1671Z" fill="#1d4e6b" stroke="#1d4e6b"></path><path d="M819 1715L759 1555L677 1671Z" fill="#277297" stroke="#277297"></path><path d="M819 1715L900 1643L759 1555Z" fill="#297ea6" stroke="#297ea6"></path><path d="M464 266L331 311L442 344Z" fill="#0c2435" stroke="#0c2435"></path><path d="M442 344L331 311L399 380Z" fill="#112e42" stroke="#112e42"></path><path d="M70 392L160 545L209 388Z" fill="#205a7a" stroke="#205a7a"></path><path d="M70 392L0 457L93 544Z" fill="#19435d" stroke="#19435d"></path><path d="M419 1780L539 1793L495 1671Z" fill="#00101c" stroke="#00101c"></path><path d="M806 356L706 324L717 388Z" fill="#112e42" stroke="#112e42"></path><path d="M717 388L706 324L610 362Z" fill="#0c2435" stroke="#0c2435"></path><path d="M578 344L464 266L442 344Z" fill="#112e42" stroke="#112e42"></path><path d="M761 1778L819 1715L677 1671Z" fill="#15384f" stroke="#15384f"></path><path d="M66 301L70 392L209 388Z" fill="#205a7a" stroke="#205a7a"></path><path d="M136 1761L145 1737L0 1693Z" fill="#246688" stroke="#246688"></path><path d="M273 1738L255 1779L370 1743Z" fill="#00101c" stroke="#00101c"></path><path d="M145 1737L255 1779L242 1706Z" fill="#0c2435" stroke="#0c2435"></path><path d="M557 1917L640 1845L539 1793Z" fill="#1d4e6b" stroke="#1d4e6b"></path><path d="M900 494L806 356L791 542Z" fill="#205a7a" stroke="#205a7a"></path><path d="M647 233L464 266L578 344Z" fill="#246688" stroke="#246688"></path><path d="M331 311L227 285L209 388Z" fill="#277297" stroke="#277297"></path><path d="M819 1715L900 1692L900 1643Z" fill="#112e42" stroke="#112e42"></path><path d="M0 1693L145 1737L58 1597Z" fill="#00101c" stroke="#00101c"></path><path d="M145 1737L208 1811L255 1779Z" fill="#205a7a" stroke="#205a7a"></path><path d="M746 1808L677 1671L640 1845Z" fill="#1d4e6b" stroke="#1d4e6b"></path><path d="M819 1715L900 1759L900 1692Z" fill="#15384f" stroke="#15384f"></path><path d="M698 204L647 233L706 324Z" fill="#297ea6" stroke="#297ea6"></path><path d="M900 494L900 380L806 356Z" fill="#0c2435" stroke="#0c2435"></path><path d="M298 193L227 285L331 311Z" fill="#0c2435" stroke="#0c2435"></path><path d="M0 1598L0 1693L58 1597Z" fill="#15384f" stroke="#15384f"></path><path d="M177 1914L208 1811L136 1761Z" fill="#1d4e6b" stroke="#1d4e6b"></path><path d="M136 1761L208 1811L145 1737Z" fill="#081a28" stroke="#081a28"></path><path d="M255 1779L384 1862L370 1743Z" fill="#19435d" stroke="#19435d"></path><path d="M640 1845L677 1671L575 1703Z" fill="#112e42" stroke="#112e42"></path><path d="M761 1778L900 1759L819 1715Z" fill="#00101c" stroke="#00101c"></path><path d="M640 1845L575 1703L539 1793Z" fill="#112e42" stroke="#112e42"></path><path d="M488 1910L539 1793L419 1780Z" fill="#081a28" stroke="#081a28"></path><path d="M66 301L0 367L70 392Z" fill="#19435d" stroke="#19435d"></path><path d="M70 392L0 367L0 457Z" fill="#1d4e6b" stroke="#1d4e6b"></path><path d="M308 1894L384 1862L255 1779Z" fill="#277297" stroke="#277297"></path><path d="M787 256L706 324L806 356Z" fill="#297ea6" stroke="#297ea6"></path><path d="M706 324L647 233L610 362Z" fill="#00101c" stroke="#00101c"></path><path d="M369 178L298 193L331 311Z" fill="#112e42" stroke="#112e42"></path><path d="M825 1939L900 1759L746 1808Z" fill="#246688" stroke="#246688"></path><path d="M746 1808L900 1759L761 1778Z" fill="#277297" stroke="#277297"></path><path d="M227 285L66 301L209 388Z" fill="#00101c" stroke="#00101c"></path><path d="M127 193L66 301L227 285Z" fill="#00101c" stroke="#00101c"></path><path d="M900 309L787 256L806 356Z" fill="#15384f" stroke="#15384f"></path><path d="M900 380L900 309L806 356Z" fill="#205a7a" stroke="#205a7a"></path><path d="M208 1811L308 1894L255 1779Z" fill="#1d4e6b" stroke="#1d4e6b"></path><path d="M384 1862L488 1910L419 1780Z" fill="#0c2435" stroke="#0c2435"></path><path d="M177 1914L308 1894L208 1811Z" fill="#297ea6" stroke="#297ea6"></path><path d="M369 178L331 311L464 266Z" fill="#246688" stroke="#246688"></path><path d="M434 1968L488 1910L384 1862Z" fill="#277297" stroke="#277297"></path><path d="M640 1845L675 1940L746 1808Z" fill="#19435d" stroke="#19435d"></path><path d="M460 139L369 178L464 266Z" fill="#112e42" stroke="#112e42"></path><path d="M541 153L464 266L647 233Z" fill="#277297" stroke="#277297"></path><path d="M847 229L698 204L787 256Z" fill="#19435d" stroke="#19435d"></path><path d="M787 256L698 204L706 324Z" fill="#0c2435" stroke="#0c2435"></path><path d="M241 135L245 196L298 193Z" fill="#277297" stroke="#277297"></path><path d="M298 193L245 196L227 285Z" fill="#081a28" stroke="#081a28"></path><path d="M640 1845L557 1917L627 1955Z" fill="#19435d" stroke="#19435d"></path><path d="M488 1910L557 1917L539 1793Z" fill="#112e42" stroke="#112e42"></path><path d="M0 210L0 292L66 301Z" fill="#15384f" stroke="#15384f"></path><path d="M66 301L0 292L0 367Z" fill="#205a7a" stroke="#205a7a"></path><path d="M0 1693L0 1799L136 1761Z" fill="#205a7a" stroke="#205a7a"></path><path d="M636 91L541 153L647 233Z" fill="#0c2435" stroke="#0c2435"></path><path d="M301 60L241 135L298 193Z" fill="#0c2435" stroke="#0c2435"></path><path d="M900 309L847 229L787 256Z" fill="#00101c" stroke="#00101c"></path><path d="M698 204L636 91L647 233Z" fill="#277297" stroke="#277297"></path><path d="M541 153L460 139L464 266Z" fill="#1d4e6b" stroke="#1d4e6b"></path><path d="M900 309L900 240L847 229Z" fill="#0c2435" stroke="#0c2435"></path><path d="M675 61L636 91L698 204Z" fill="#277297" stroke="#277297"></path><path d="M245 196L127 193L227 285Z" fill="#19435d" stroke="#19435d"></path><path d="M241 135L127 193L245 196Z" fill="#297ea6" stroke="#297ea6"></path><path d="M71 1947L177 1914L136 1761Z" fill="#297ea6" stroke="#297ea6"></path><path d="M334 1973L434 1968L384 1862Z" fill="#19435d" stroke="#19435d"></path><path d="M483 2017L557 1917L488 1910Z" fill="#19435d" stroke="#19435d"></path><path d="M627 1955L675 1940L640 1845Z" fill="#081a28" stroke="#081a28"></path><path d="M334 1973L384 1862L308 1894Z" fill="#297ea6" stroke="#297ea6"></path><path d="M483 2017L627 1955L557 1917Z" fill="#0c2435" stroke="#0c2435"></path><path d="M301 60L298 193L369 178Z" fill="#112e42" stroke="#112e42"></path><path d="M226 1984L334 1973L308 1894Z" fill="#277297" stroke="#277297"></path><path d="M108 125L0 210L127 193Z" fill="#246688" stroke="#246688"></path><path d="M127 193L0 210L66 301Z" fill="#297ea6" stroke="#297ea6"></path><path d="M629 2093L683 1978L627 1955Z" fill="#0c2435" stroke="#0c2435"></path><path d="M627 1955L683 1978L675 1940Z" fill="#205a7a" stroke="#205a7a"></path><path d="M675 1940L825 1939L746 1808Z" fill="#081a28" stroke="#081a28"></path><path d="M483 2017L488 1910L434 1968Z" fill="#00101c" stroke="#00101c"></path><path d="M782 1998L825 1939L675 1940Z" fill="#277297" stroke="#277297"></path><path d="M816 67L698 204L847 229Z" fill="#00101c" stroke="#00101c"></path><path d="M541 153L478 0L460 139Z" fill="#0c2435" stroke="#0c2435"></path><path d="M460 139L380 57L369 178Z" fill="#19435d" stroke="#19435d"></path><path d="M177 1914L226 1984L308 1894Z" fill="#246688" stroke="#246688"></path><path d="M426 2063L483 2017L434 1968Z" fill="#0c2435" stroke="#0c2435"></path><path d="M88 2022L226 1984L177 1914Z" fill="#112e42" stroke="#112e42"></path><path d="M426 2063L434 1968L334 1973Z" fill="#19435d" stroke="#19435d"></path><path d="M241 135L108 125L127 193Z" fill="#19435d" stroke="#19435d"></path><path d="M184 0L108 125L241 135Z" fill="#297ea6" stroke="#297ea6"></path><path d="M0 1799L71 1947L136 1761Z" fill="#1d4e6b" stroke="#1d4e6b"></path><path d="M900 1993L900 1928L825 1939Z" fill="#00101c" stroke="#00101c"></path><path d="M825 1939L900 1928L900 1759Z" fill="#277297" stroke="#277297"></path><path d="M478 0L380 57L460 139Z" fill="#246688" stroke="#246688"></path><path d="M380 57L301 60L369 178Z" fill="#1d4e6b" stroke="#1d4e6b"></path><path d="M900 240L900 140L847 229Z" fill="#0c2435" stroke="#0c2435"></path><path d="M816 67L675 61L698 204Z" fill="#277297" stroke="#277297"></path><path d="M573 0L478 0L541 153Z" fill="#19435d" stroke="#19435d"></path><path d="M694 2116L782 1998L683 1978Z" fill="#081a28" stroke="#081a28"></path><path d="M683 1978L782 1998L675 1940Z" fill="#112e42" stroke="#112e42"></path><path d="M0 1799L0 1943L71 1947Z" fill="#205a7a" stroke="#205a7a"></path><path d="M71 1947L88 2022L177 1914Z" fill="#297ea6" stroke="#297ea6"></path><path d="M287 2121L334 1973L226 1984Z" fill="#277297" stroke="#277297"></path><path d="M287 2121L426 2063L334 1973Z" fill="#297ea6" stroke="#297ea6"></path><path d="M483 2017L629 2093L627 1955Z" fill="#00101c" stroke="#00101c"></path><path d="M900 140L816 67L847 229Z" fill="#112e42" stroke="#112e42"></path><path d="M573 0L636 91L675 61Z" fill="#297ea6" stroke="#297ea6"></path><path d="M573 0L541 153L636 91Z" fill="#277297" stroke="#277297"></path><path d="M380 57L313 0L301 60Z" fill="#277297" stroke="#277297"></path><path d="M301 60L184 0L241 135Z" fill="#0c2435" stroke="#0c2435"></path><path d="M782 1998L900 1993L825 1939Z" fill="#205a7a" stroke="#205a7a"></path><path d="M781 2125L900 1993L782 1998Z" fill="#297ea6" stroke="#297ea6"></path><path d="M478 0L412 0L380 57Z" fill="#297ea6" stroke="#297ea6"></path><path d="M0 1991L88 2022L71 1947Z" fill="#0c2435" stroke="#0c2435"></path><path d="M688 0L573 0L675 61Z" fill="#246688" stroke="#246688"></path><path d="M412 0L313 0L380 57Z" fill="#081a28" stroke="#081a28"></path><path d="M0 1943L0 1991L71 1947Z" fill="#205a7a" stroke="#205a7a"></path><path d="M88 2022L205 2072L226 1984Z" fill="#19435d" stroke="#19435d"></path><path d="M287 2121L228 2200L277 2200Z" fill="#205a7a" stroke="#205a7a"></path><path d="M513 2124L483 2017L426 2063Z" fill="#277297" stroke="#277297"></path><path d="M513 2124L629 2093L483 2017Z" fill="#0c2435" stroke="#0c2435"></path><path d="M66 0L0 88L108 125Z" fill="#15384f" stroke="#15384f"></path><path d="M108 125L0 88L0 210Z" fill="#277297" stroke="#277297"></path><path d="M786 0L688 0L675 61Z" fill="#19435d" stroke="#19435d"></path><path d="M313 0L184 0L301 60Z" fill="#1d4e6b" stroke="#1d4e6b"></path><path d="M486 2200L513 2124L426 2063Z" fill="#15384f" stroke="#15384f"></path><path d="M816 67L786 0L675 61Z" fill="#081a28" stroke="#081a28"></path><path d="M900 0L786 0L816 67Z" fill="#112e42" stroke="#112e42"></path><path d="M89 2132L205 2072L88 2022Z" fill="#246688" stroke="#246688"></path><path d="M205 2072L287 2121L226 1984Z" fill="#00101c" stroke="#00101c"></path><path d="M623 2200L694 2116L629 2093Z" fill="#112e42" stroke="#112e42"></path><path d="M629 2093L694 2116L683 1978Z" fill="#205a7a" stroke="#205a7a"></path><path d="M184 0L66 0L108 125Z" fill="#19435d" stroke="#19435d"></path><path d="M746 2200L781 2125L694 2116Z" fill="#112e42" stroke="#112e42"></path><path d="M694 2116L781 2125L782 1998Z" fill="#00101c" stroke="#00101c"></path><path d="M900 140L900 0L816 67Z" fill="#205a7a" stroke="#205a7a"></path><path d="M66 0L0 0L0 88Z" fill="#15384f" stroke="#15384f"></path><path d="M0 2111L89 2132L88 2022Z" fill="#246688" stroke="#246688"></path><path d="M355 2200L486 2200L426 2063Z" fill="#15384f" stroke="#15384f"></path><path d="M513 2124L623 2200L629 2093Z" fill="#15384f" stroke="#15384f"></path><path d="M355 2200L426 2063L287 2121Z" fill="#297ea6" stroke="#297ea6"></path><path d="M277 2200L355 2200L287 2121Z" fill="#277297" stroke="#277297"></path><path d="M0 1991L0 2111L88 2022Z" fill="#277297" stroke="#277297"></path><path d="M228 2200L287 2121L205 2072Z" fill="#00101c" stroke="#00101c"></path><path d="M486 2200L623 2200L513 2124Z" fill="#297ea6" stroke="#297ea6"></path><path d="M781 2125L900 2131L900 1993Z" fill="#1d4e6b" stroke="#1d4e6b"></path><path d="M836 2200L900 2131L781 2125Z" fill="#112e42" stroke="#112e42"></path><path d="M228 2200L205 2072L89 2132Z" fill="#19435d" stroke="#19435d"></path><path d="M68 2200L228 2200L89 2132Z" fill="#081a28" stroke="#081a28"></path><path d="M623 2200L746 2200L694 2116Z" fill="#19435d" stroke="#19435d"></path><path d="M746 2200L836 2200L781 2125Z" fill="#0c2435" stroke="#0c2435"></path><path d="M0 2111L68 2200L89 2132Z" fill="#1d4e6b" stroke="#1d4e6b"></path><path d="M836 2200L900 2200L900 2131Z" fill="#246688" stroke="#246688"></path><path d="M0 2111L0 2200L68 2200Z" fill="#277297" stroke="#277297"></path></g></svg>