<svg id="visual" preserveAspectRatio="xMinYMin slice" viewBox="0 0 700 2200" xmlns="http://www.w3.org/2000/svg" xmlns:xlink="http://www.w3.org/1999/xlink" version="1.1"><rect x="0" y="0" width="900" height="2200" fill="#5e5e5e"></rect><path d="M309 2200L265 2063L262 1925L309 1788L179 1650L276 1513L108 1375L223 1238L207 1100L81 963L133 825L91 688L147 550L226 413L117 275L199 138L229 0L900 0L900 138L900 275L900 413L900 550L900 688L900 825L900 963L900 1100L900 1238L900 1375L900 1513L900 1650L900 1788L900 1925L900 2063L900 2200Z" fill="#707070"></path><path d="M342 2200L403 2063L240 1925L388 1788L301 1650L305 1513L309 1375L404 1238L411 1100L332 963L394 825L353 688L216 550L205 413L318 275L223 138L314 0L900 0L900 138L900 275L900 413L900 550L900 688L900 825L900 963L900 1100L900 1238L900 1375L900 1513L900 1650L900 1788L900 1925L900 2063L900 2200Z" fill="#7c7c7c"></path><path d="M431 2200L502 2063L467 1925L348 1788L426 1650L383 1513L412 1375L491 1238L463 1100L467 963L466 825L446 688L386 550L361 413L397 275L409 138L426 0L900 0L900 138L900 275L900 413L900 550L900 688L900 825L900 963L900 1100L900 1238L900 1375L900 1513L900 1650L900 1788L900 1925L900 2063L900 2200Z" fill="#898989"></path><path d="M517 2200L551 2063L625 1925L511 1788L516 1650L527 1513L479 1375L617 1238L533 1100L542 963L487 825L507 688L590 550L545 413L480 275L560 138L553 0L900 0L900 138L900 275L900 413L900 550L900 688L900 825L900 963L900 1100L900 1238L900 1375L900 1513L900 1650L900 1788L900 1925L900 2063L900 2200Z" fill="#959595"></path><path d="M644 2200L600 2063L606 1925L648 1788L670 1650L717 1513L603 1375L607 1238L632 1100L597 963L723 825L666 688L657 550L730 413L712 275L575 138L630 0L900 0L900 138L900 275L900 413L900 550L900 688L900 825L900 963L900 1100L900 1238L900 1375L900 1513L900 1650L900 1788L900 1925L900 2063L900 2200Z" fill="#a3a3a3"></path><path d="M783 2200L849 2063L776 1925L748 1788L809 1650L817 1513L750 1375L736 1238L800 1100L801 963L782 825L763 688L777 550L699 413L705 275L720 138L749 0L900 0L900 138L900 275L900 413L900 550L900 688L900 825L900 963L900 1100L900 1238L900 1375L900 1513L900 1650L900 1788L900 1925L900 2063L900 2200Z" fill="#b0b0b0"></path></svg>