<svg id="visual" preserveAspectRatio="xMinYMin slice" viewBox="0 0 700 2200" xmlns="http://www.w3.org/2000/svg" xmlns:xlink="http://www.w3.org/1999/xlink" version="1.1"><rect x="0" y="0" width="700" height="2200" fill="#5e5e5e"></rect><path d="M241 2200L206 2063L204 1925L240 1788L140 1650L215 1513L84 1375L174 1238L161 1100L63 963L104 825L71 688L114 550L176 413L91 275L155 138L179 0L700 0L700 138L700 275L700 413L700 550L700 688L700 825L700 963L700 1100L700 1238L700 1375L700 1513L700 1650L700 1788L700 1925L700 2063L700 2200Z" fill="#707070"></path><path d="M266 2200L314 2063L187 1925L302 1788L235 1650L238 1513L240 1375L315 1238L320 1100L259 963L307 825L275 688L168 550L159 413L248 275L174 138L244 0L700 0L700 138L700 275L700 413L700 550L700 688L700 825L700 963L700 1100L700 1238L700 1375L700 1513L700 1650L700 1788L700 1925L700 2063L700 2200Z" fill="#7c7c7c"></path><path d="M335 2200L391 2063L363 1925L271 1788L331 1650L298 1513L321 1375L382 1238L360 1100L363 963L363 825L347 688L300 550L281 413L309 275L318 138L332 0L700 0L700 138L700 275L700 413L700 550L700 688L700 825L700 963L700 1100L700 1238L700 1375L700 1513L700 1650L700 1788L700 1925L700 2063L700 2200Z" fill="#898989"></path><path d="M402 2200L429 2063L486 1925L398 1788L401 1650L410 1513L373 1375L480 1238L415 1100L422 963L379 825L394 688L459 550L424 413L374 275L436 138L430 0L700 0L700 138L700 275L700 413L700 550L700 688L700 825L700 963L700 1100L700 1238L700 1375L700 1513L700 1650L700 1788L700 1925L700 2063L700 2200Z" fill="#959595"></path><path d="M501 2200L467 2063L472 1925L504 1788L522 1650L558 1513L469 1375L473 1238L491 1100L464 963L562 825L519 688L511 550L568 413L554 275L448 138L491 0L700 0L700 138L700 275L700 413L700 550L700 688L700 825L700 963L700 1100L700 1238L700 1375L700 1513L700 1650L700 1788L700 1925L700 2063L700 2200Z" fill="#a3a3a3"></path><path d="M609 2200L661 2063L604 1925L582 1788L629 1650L636 1513L584 1375L573 1238L623 1100L623 963L609 825L594 688L605 550L544 413L548 275L560 138L583 0L700 0L700 138L700 275L700 413L700 550L700 688L700 825L700 963L700 1100L700 1238L700 1375L700 1513L700 1650L700 1788L700 1925L700 2063L700 2200Z" fill="#b0b0b0"></path></svg>